<svg xmlns="http://www.w3.org/2000/svg" viewBox="0 0 333.95 199.44"><defs><style>.cls-1,.cls-11,.cls-6{fill:#333}.cls-1,.cls-2,.cls-3,.cls-4,.cls-5{stroke:#fff;stroke-width:31px}.cls-1,.cls-2,.cls-3,.cls-4,.cls-5,.cls-6,.cls-7,.cls-9{stroke-miterlimit:10}.cls-12,.cls-2,.cls-7{fill:#231f20}.cls-3,.cls-8{fill:#482c3f}.cls-13,.cls-4,.cls-9{fill:#d53827}.cls-5{fill:#e6e7e8}.cls-6,.cls-7,.cls-9{stroke:#414042}.cls-9{stroke-width:2px}</style></defs><g id="Layer_2" data-name="Layer 2"><g id="Layer_4_copy" data-name="Layer 4 copy"><path d="m222.69 85.71-1.78 6.08a3.1 3.1 0 0 0 3 4.25l91.22-3.69a3.12 3.12 0 0 0 2.95-3.28 2.29 2.29 0 0 0 0-.25L315.35 69a3.09 3.09 0 0 0-3.48-2.65h-.12l-84.29 17.38c-1.08.19-4.39.94-4.77 1.98Z" class="cls-1"/><path d="M223.78 96.37a3.49 3.49 0 0 1-1.27-.24 3.44 3.44 0 0 1-1.91-4.46l1.78-6.08c.48-1.32 4.27-2 5-2.18L311.68 66h.14a3.4 3.4 0 0 1 2.54.67 3.36 3.36 0 0 1 1.32 2.26l2.74 19.88a2.45 2.45 0 0 1 0 .27 3.45 3.45 0 0 1-3.26 3.63L224 96.37ZM223 85.81l-1.78 6.08a2.78 2.78 0 0 0 1.54 3.62 2.87 2.87 0 0 0 1.16.2L315.15 92a2.8 2.8 0 0 0 2.63-2.94 1.49 1.49 0 0 0 0-.21L315 69a2.76 2.76 0 0 0-3.12-2.36h-.1l-84.25 17.42c-2.04.36-4.27 1.11-4.53 1.75Z" class="cls-2"/><path d="m213.16 107.51-2.12 3.7a2.4 2.4 0 0 0 .93 3.26l.18.09 82.52 37.95a2.41 2.41 0 0 0 3.08-1L311 128.56a2.39 2.39 0 0 0-.89-3.27 2.23 2.23 0 0 0-.72-.27l-93.62-18.69a2.4 2.4 0 0 0-2.61 1.18Z" class="cls-1"/><path d="M295.67 153.06a2.73 2.73 0 0 1-1.14-.25L212 114.86l-.21-.1a2.75 2.75 0 0 1-1.05-3.72l2.13-3.69a2.71 2.71 0 0 1 2.93-1.35l93.62 18.69a2.72 2.72 0 0 1 1.83 4l-13.22 23a2.71 2.71 0 0 1-2.36 1.37Zm-80.41-46.45a2.08 2.08 0 0 0-1.81 1.06l-2.12 3.69a2.07 2.07 0 0 0 .8 2.81l.15.08 82.53 38a2 2 0 0 0 2.65-.86l13.22-23a2.07 2.07 0 0 0-.77-2.82 2.2 2.2 0 0 0-.62-.23l-93.62-18.69a2 2 0 0 0-.41-.04Z" class="cls-2"/><path d="m202.94 121.66 63.64 48a1.87 1.87 0 0 1-.32 3.18l-21.74 10.61a1.87 1.87 0 0 1-2.27-.49L197 128.43a1.9 1.9 0 0 1 0-2.4l3.37-4.07a1.86 1.86 0 0 1 2.57-.3Z" class="cls-1"/><path d="M243.7 183.94a2.19 2.19 0 0 1-1.7-.8l-45.26-54.5a2.23 2.23 0 0 1 0-2.82l3.38-4.07a2.18 2.18 0 0 1 3-.35l63.64 48a2.21 2.21 0 0 1-.37 3.74l-21.75 10.61a2.21 2.21 0 0 1-.94.19Zm-41.89-62.33a1.52 1.52 0 0 0-1.18.56l-3.38 4.08a1.55 1.55 0 0 0 0 2l45.25 54.5a1.55 1.55 0 0 0 1.87.4l21.75-10.6a1.73 1.73 0 0 0 .53-.44 1.56 1.56 0 0 0-.27-2.19l-63.64-48a1.48 1.48 0 0 0-.93-.31Z" class="cls-2"/><path d="M195.52 74.11s-7.59 40.76-29.65 46.11c0 0-56.21 15.79-143.95-61.34 0 0-8.58-22.63-5.9-36.29s185 25.63 180.85 49.05" class="cls-3"/><path d="M21.17 52.69S13.4 60 64.46 108.46s80.94 64.47 92 59.53 28.24-31.77 9.41-47.77c0 0-14.58 5.42-62.82-16.94S21.34 49.2 21.17 52.69Z" class="cls-4"/><path d="m191.09 85 4-9.89c.29-.71 2.05-2.72 1.74-3.43-1.8-4.13-13.24-16.22-64.3-25.32C80.25 37 32.07 27.44 19.29 24.89c-.95-.19-2.62-2.88-3.27-2.3s-.33 4.47-.2 5.47c.33 2.67 1.51 6.81 4.93 12.63 6.77 11.53 9.12 7.77 9.12 7.77s13-5.67 16-3.66a49.41 49.41 0 0 1 9.42 8.6c2.29 2.68 13 1 16.89.28a2.86 2.86 0 0 0 2-1.42c1.47-2.61 6.06-7.93 15.46 3.73 11.76 14.59 21.18-1.06 21.18-1.06s1.41-3.12 3.52.94-.17 8.29 12.53 9.53 10.42-1.5 13.11.79 4.5 6.27 5.16 5.92 11.12 6.26 18.26 4.76 6.62 0 6.27 2.09 14.81 10.86 20.4 7.29a2.71 2.71 0 0 0 1.02-1.25Z" class="cls-5"/><path d="M195.52 74.11S227.76 63.52 218.58 40 107.05 14.81 92.23 15.75c0 0-76.94-2.35-76.24 7.3S191.05 44 195.52 74.11Z" class="cls-4"/><path d="m222.69 85.71-1.78 6.08a3.1 3.1 0 0 0 3 4.25l91.22-3.69a3.12 3.12 0 0 0 2.95-3.28 2.29 2.29 0 0 0 0-.25L315.35 69a3.09 3.09 0 0 0-3.48-2.65h-.12l-84.29 17.38c-1.08.19-4.39.94-4.77 1.98Z" class="cls-1"/><path d="M223.78 96.37a3.49 3.49 0 0 1-1.27-.24 3.44 3.44 0 0 1-1.91-4.46l1.78-6.08c.48-1.32 4.27-2 5-2.18L311.68 66h.14a3.4 3.4 0 0 1 2.54.67 3.36 3.36 0 0 1 1.32 2.26l2.74 19.88a2.45 2.45 0 0 1 0 .27 3.45 3.45 0 0 1-3.26 3.63L224 96.37ZM223 85.81l-1.78 6.08a2.78 2.78 0 0 0 1.54 3.62 2.87 2.87 0 0 0 1.16.2L315.15 92a2.8 2.8 0 0 0 2.63-2.94 1.49 1.49 0 0 0 0-.21L315 69a2.76 2.76 0 0 0-3.12-2.36h-.1l-84.25 17.42c-2.04.36-4.27 1.11-4.53 1.75Z" class="cls-2"/><path d="m213.16 107.51-2.12 3.7a2.4 2.4 0 0 0 .93 3.26l.18.09 82.52 37.95a2.41 2.41 0 0 0 3.08-1L311 128.56a2.39 2.39 0 0 0-.89-3.27 2.23 2.23 0 0 0-.72-.27l-93.62-18.69a2.4 2.4 0 0 0-2.61 1.18Z" class="cls-1"/><path d="M295.67 153.06a2.73 2.73 0 0 1-1.14-.25L212 114.86l-.21-.1a2.75 2.75 0 0 1-1.05-3.72l2.13-3.69a2.71 2.71 0 0 1 2.93-1.35l93.62 18.69a2.72 2.72 0 0 1 1.83 4l-13.22 23a2.71 2.71 0 0 1-2.36 1.37Zm-80.41-46.45a2.08 2.08 0 0 0-1.81 1.06l-2.12 3.69a2.07 2.07 0 0 0 .8 2.81l.15.08 82.53 38a2 2 0 0 0 2.65-.86l13.22-23a2.07 2.07 0 0 0-.77-2.82 2.2 2.2 0 0 0-.62-.23l-93.62-18.69a2 2 0 0 0-.41-.04Z" class="cls-2"/><path d="m202.94 121.66 63.64 48a1.87 1.87 0 0 1-.32 3.18l-21.74 10.61a1.87 1.87 0 0 1-2.27-.49L197 128.43a1.9 1.9 0 0 1 0-2.4l3.37-4.07a1.86 1.86 0 0 1 2.57-.3Z" class="cls-1"/><path d="M243.7 183.94a2.19 2.19 0 0 1-1.7-.8l-45.26-54.5a2.23 2.23 0 0 1 0-2.82l3.38-4.07a2.18 2.18 0 0 1 3-.35l63.64 48a2.21 2.21 0 0 1-.37 3.74l-21.75 10.61a2.21 2.21 0 0 1-.94.19Zm-41.89-62.33a1.52 1.52 0 0 0-1.18.56l-3.38 4.08a1.55 1.55 0 0 0 0 2l45.25 54.5a1.55 1.55 0 0 0 1.87.4l21.75-10.6a1.73 1.73 0 0 0 .53-.44 1.56 1.56 0 0 0-.27-2.19l-63.64-48a1.48 1.48 0 0 0-.93-.31Z" class="cls-2"/><path d="M195.52 74.11s-7.59 40.76-29.65 46.11c0 0-56.21 15.79-143.95-61.34 0 0-8.58-22.63-5.9-36.29s185 25.63 180.85 49.05" class="cls-3"/><path d="M21.17 52.69S13.4 60 64.46 108.46s80.94 64.47 92 59.53 28.24-31.77 9.41-47.77c0 0-14.58 5.42-62.82-16.94S21.34 49.2 21.17 52.69Z" class="cls-4"/><path d="m191.09 85 4-9.89c.29-.71 2.05-2.72 1.74-3.43-1.8-4.13-13.24-16.22-64.3-25.32C80.25 37 32.07 27.44 19.29 24.89c-.95-.19-2.62-2.88-3.27-2.3s-.33 4.47-.2 5.47c.33 2.67 1.51 6.81 4.93 12.63 6.77 11.53 9.12 7.77 9.12 7.77s13-5.67 16-3.66a49.41 49.41 0 0 1 9.42 8.6c2.29 2.68 13 1 16.89.28a2.86 2.86 0 0 0 2-1.42c1.47-2.61 6.06-7.93 15.46 3.73 11.76 14.59 21.18-1.06 21.18-1.06s1.41-3.12 3.52.94-.17 8.29 12.53 9.53 10.42-1.5 13.11.79 4.5 6.27 5.16 5.92 11.12 6.26 18.26 4.76 6.62 0 6.27 2.09 14.81 10.86 20.4 7.29a2.71 2.71 0 0 0 1.02-1.25Z" class="cls-5"/><path d="M195.52 74.11S227.76 63.52 218.58 40 107.05 14.81 92.23 15.75c0 0-76.94-2.35-76.24 7.3S191.05 44 195.52 74.11Z" class="cls-4"/></g><g id="Layer_5" data-name="Layer 5"><path d="m222.69 85.71-1.78 6.08a3.1 3.1 0 0 0 3 4.25l91.22-3.69a3.12 3.12 0 0 0 2.95-3.28 2.29 2.29 0 0 0 0-.25L315.35 69a3.09 3.09 0 0 0-3.48-2.65h-.12l-84.29 17.38c-1.08.19-4.39.94-4.77 1.98Z" class="cls-6"/><path d="M223.78 96.37a3.49 3.49 0 0 1-1.27-.24 3.44 3.44 0 0 1-1.91-4.46l1.78-6.08c.48-1.32 4.27-2 5-2.18L311.68 66h.14a3.4 3.4 0 0 1 2.54.67 3.36 3.36 0 0 1 1.32 2.26l2.74 19.88a2.45 2.45 0 0 1 0 .27 3.45 3.45 0 0 1-3.26 3.63L224 96.37ZM223 85.81l-1.78 6.08a2.78 2.78 0 0 0 1.54 3.62 2.87 2.87 0 0 0 1.16.2L315.15 92a2.8 2.8 0 0 0 2.63-2.94 1.49 1.49 0 0 0 0-.21L315 69a2.76 2.76 0 0 0-3.12-2.36h-.1l-84.25 17.42c-2.04.36-4.27 1.11-4.53 1.75Z" class="cls-7"/><path d="m213.16 107.51-2.12 3.7a2.4 2.4 0 0 0 .93 3.26l.18.09 82.52 37.95a2.41 2.41 0 0 0 3.08-1L311 128.56a2.39 2.39 0 0 0-.89-3.27 2.23 2.23 0 0 0-.72-.27l-93.62-18.69a2.4 2.4 0 0 0-2.61 1.18Z" class="cls-6"/><path d="M295.67 153.06a2.73 2.73 0 0 1-1.14-.25L212 114.86l-.21-.1a2.75 2.75 0 0 1-1.05-3.72l2.13-3.69a2.71 2.71 0 0 1 2.93-1.35l93.62 18.69a2.72 2.72 0 0 1 1.83 4l-13.22 23a2.71 2.71 0 0 1-2.36 1.37Zm-80.41-46.45a2.08 2.08 0 0 0-1.81 1.06l-2.12 3.69a2.07 2.07 0 0 0 .8 2.81l.15.08 82.53 38a2 2 0 0 0 2.65-.86l13.22-23a2.07 2.07 0 0 0-.77-2.82 2.2 2.2 0 0 0-.62-.23l-93.62-18.69a2 2 0 0 0-.41-.04Z" class="cls-7"/><path d="m202.94 121.66 63.64 48a1.87 1.87 0 0 1-.32 3.18l-21.74 10.61a1.87 1.87 0 0 1-2.27-.49L197 128.43a1.9 1.9 0 0 1 0-2.4l3.37-4.07a1.86 1.86 0 0 1 2.57-.3Z" class="cls-6"/><path d="M243.7 183.94a2.19 2.19 0 0 1-1.7-.8l-45.26-54.5a2.23 2.23 0 0 1 0-2.82l3.38-4.07a2.18 2.18 0 0 1 3-.35l63.64 48a2.21 2.21 0 0 1-.37 3.74l-21.75 10.61a2.21 2.21 0 0 1-.94.19Zm-41.89-62.33a1.52 1.52 0 0 0-1.18.56l-3.38 4.08a1.55 1.55 0 0 0 0 2l45.25 54.5a1.55 1.55 0 0 0 1.87.4l21.75-10.6a1.73 1.73 0 0 0 .53-.44 1.56 1.56 0 0 0-.27-2.19l-63.64-48a1.48 1.48 0 0 0-.93-.31Z" class="cls-7"/><path d="M195.52 74.11s-7.59 40.76-29.65 46.11c0 0-56.21 15.79-143.95-61.34 0 0-8.58-22.63-5.9-36.29s185 25.63 180.85 49.05" class="cls-8"/><path d="M21.17 52.69S13.4 60 64.46 108.46s80.94 64.47 92 59.53 28.24-31.77 9.41-47.77c0 0-14.58 5.42-62.82-16.94S21.34 49.2 21.17 52.69Z" class="cls-9"/><path d="m191.09 85 4-9.89c.29-.71 2.05-2.72 1.74-3.43-1.8-4.13-13.24-16.22-64.3-25.32C80.25 37 32.07 27.44 19.29 24.89c-.95-.19-2.62-2.88-3.27-2.3s-.33 4.47-.2 5.47c.33 2.67 1.51 6.81 4.93 12.63 6.77 11.53 9.12 7.77 9.12 7.77s13-5.67 16-3.66a49.41 49.41 0 0 1 9.42 8.6c2.29 2.68 13 1 16.89.28a2.86 2.86 0 0 0 2-1.42c1.47-2.61 6.06-7.93 15.46 3.73 11.76 14.59 21.18-1.06 21.18-1.06s1.41-3.12 3.52.94-.17 8.29 12.53 9.53 10.42-1.5 13.11.79 4.5 6.27 5.16 5.92 11.12 6.26 18.26 4.76 6.62 0 6.27 2.09 14.81 10.86 20.4 7.29a2.71 2.71 0 0 0 1.02-1.25Z" style="stroke-width:2px;stroke:#414042;fill:#e6e7e8;stroke-miterlimit:10"/><path d="M195.52 74.11S227.76 63.52 218.58 40 107.05 14.81 92.23 15.75c0 0-76.94-2.35-76.24 7.3S191.05 44 195.52 74.11Z" class="cls-9"/><path d="m222.69 85.71-1.78 6.08a3.1 3.1 0 0 0 3 4.25l91.22-3.69a3.12 3.12 0 0 0 2.95-3.28 2.29 2.29 0 0 0 0-.25L315.35 69a3.09 3.09 0 0 0-3.48-2.65h-.12l-84.29 17.38c-1.08.19-4.39.94-4.77 1.98Z" class="cls-11"/><path d="M223.78 96.37a3.49 3.49 0 0 1-1.27-.24 3.44 3.44 0 0 1-1.91-4.46l1.78-6.08c.48-1.32 4.27-2 5-2.18L311.68 66h.14a3.4 3.4 0 0 1 2.54.67 3.36 3.36 0 0 1 1.32 2.26l2.74 19.88a2.45 2.45 0 0 1 0 .27 3.45 3.45 0 0 1-3.26 3.63L224 96.37ZM223 85.81l-1.78 6.08a2.78 2.78 0 0 0 1.54 3.62 2.87 2.87 0 0 0 1.16.2L315.15 92a2.8 2.8 0 0 0 2.63-2.94 1.49 1.49 0 0 0 0-.21L315 69a2.76 2.76 0 0 0-3.12-2.36h-.1l-84.25 17.42c-2.04.36-4.27 1.11-4.53 1.75Z" class="cls-12"/><path d="m213.16 107.51-2.12 3.7a2.4 2.4 0 0 0 .93 3.26l.18.09 82.52 37.95a2.41 2.41 0 0 0 3.08-1L311 128.56a2.39 2.39 0 0 0-.89-3.27 2.23 2.23 0 0 0-.72-.27l-93.62-18.69a2.4 2.4 0 0 0-2.61 1.18Z" class="cls-11"/><path d="M295.67 153.06a2.73 2.73 0 0 1-1.14-.25L212 114.86l-.21-.1a2.75 2.75 0 0 1-1.05-3.72l2.13-3.69a2.71 2.71 0 0 1 2.93-1.35l93.62 18.69a2.72 2.72 0 0 1 1.83 4l-13.22 23a2.71 2.71 0 0 1-2.36 1.37Zm-80.41-46.45a2.08 2.08 0 0 0-1.81 1.06l-2.12 3.69a2.07 2.07 0 0 0 .8 2.81l.15.08 82.53 38a2 2 0 0 0 2.65-.86l13.22-23a2.07 2.07 0 0 0-.77-2.82 2.2 2.2 0 0 0-.62-.23l-93.62-18.69a2 2 0 0 0-.41-.04Z" class="cls-12"/><path d="m202.94 121.66 63.64 48a1.87 1.87 0 0 1-.32 3.18l-21.74 10.61a1.87 1.87 0 0 1-2.27-.49L197 128.43a1.9 1.9 0 0 1 0-2.4l3.37-4.07a1.86 1.86 0 0 1 2.57-.3Z" class="cls-11"/><path d="M243.7 183.94a2.19 2.19 0 0 1-1.7-.8l-45.26-54.5a2.23 2.23 0 0 1 0-2.82l3.38-4.07a2.18 2.18 0 0 1 3-.35l63.64 48a2.21 2.21 0 0 1-.37 3.74l-21.75 10.61a2.21 2.21 0 0 1-.94.19Zm-41.89-62.33a1.52 1.52 0 0 0-1.18.56l-3.38 4.08a1.55 1.55 0 0 0 0 2l45.25 54.5a1.55 1.55 0 0 0 1.87.4l21.75-10.6a1.73 1.73 0 0 0 .53-.44 1.56 1.56 0 0 0-.27-2.19l-63.64-48a1.48 1.48 0 0 0-.93-.31Z" class="cls-12"/><path d="M195.52 74.11s-7.59 40.76-29.65 46.11c0 0-56.21 15.79-143.95-61.34 0 0-8.58-22.63-5.9-36.29s185 25.63 180.85 49.05" class="cls-8"/><path d="M21.17 52.69S13.4 60 64.46 108.46s80.94 64.47 92 59.53 28.24-31.77 9.41-47.77c0 0-14.58 5.42-62.82-16.94S21.34 49.2 21.17 52.69Z" class="cls-13"/><path d="m191.09 85 4-9.89c.29-.71 2.05-2.72 1.74-3.43-1.8-4.13-13.24-16.22-64.3-25.32C80.25 37 32.07 27.44 19.29 24.89c-.95-.19-2.62-2.88-3.27-2.3s-.33 4.47-.2 5.47c.33 2.67 1.51 6.81 4.93 12.63 6.77 11.53 9.12 7.77 9.12 7.77s13-5.67 16-3.66a49.41 49.41 0 0 1 9.42 8.6c2.29 2.68 13 1 16.89.28a2.86 2.86 0 0 0 2-1.42c1.47-2.61 6.06-7.93 15.46 3.73 11.76 14.59 21.18-1.06 21.18-1.06s1.41-3.12 3.52.94-.17 8.29 12.53 9.53 10.42-1.5 13.11.79 4.5 6.27 5.16 5.92 11.12 6.26 18.26 4.76 6.62 0 6.27 2.09 14.81 10.86 20.4 7.29a2.71 2.71 0 0 0 1.02-1.25Z" style="fill:#e6e7e8"/><path d="M195.52 74.11S227.76 63.52 218.58 40 107.05 14.81 92.23 15.75c0 0-76.94-2.35-76.24 7.3S191.05 44 195.52 74.11Z" class="cls-13"/></g></g></svg>