<svg xmlns="http://www.w3.org/2000/svg" viewBox="0 0 142.45 87.68"><defs><style>.cls-1,.cls-4{fill:#fff;}.cls-2{fill:#542e46;}.cls-2,.cls-3,.cls-4,.cls-5{stroke:#231f20;stroke-miterlimit:10;}.cls-3{fill:#ed1c24;}.cls-5{fill:#333;}</style></defs><g id="Layer_2" data-name="Layer 2"><g id="Layer_1-2" data-name="Layer 1"><path class="cls-1" d="M74.51,52.93l9.65-7.79c2.93-4.2,4.9-12,6.5-16.9L78.53,10,.91,4.88V9.6l2.74,11S40.52,60.72,74.51,52.93Z"/><path class="cls-1" d="M90,29.21s9.57-3,11.36-10.34c0,0,10.17-15.81-38.87-18.24C62.47.63,2-2,.78,3.48.78,3.48,76.23,12.18,90,29.21Z"/><path class="cls-1" d="M74.67,53c.87.27,4.57,2.07,4.21,9.16,0,.56-1.63,14-9.9,14.47-1.46-.14-26.3-3.27-65.49-56.2a.66.66,0,0,1,.9-.95C16.77,28,59.77,56.47,74.67,53Z"/><path class="cls-1" d="M90.09,28.92v1c-.55,1.38-.87,2.74-1.5,4-.43.94-1,2.09-2.22,1.8-2.29-.5-7.23-1.77-8.8-3.55a1.77,1.77,0,0,1-.4-1V29.21S73.75,31,73,30.58c0,0-9-2.24-8.78-3.34a5.07,5.07,0,0,1-1.12-1.35,1.57,1.57,0,0,0-1.59-.76c-1.59.18-6.26.32-10-1.76-.65-.67-2.29-2.52-2-4.08l-.69-1s-3.3,4.11-4.33,3.77c-.26.2-4.18,2.32-7.2-2.05l-3.87-3.34a1.55,1.55,0,0,0-2,0l-2.08,1.82a1,1,0,0,1-1,.26h-7.5a1,1,0,0,1-1.18-.3,30.6,30.6,0,0,0-2.62-2.79c-.8-.34-2.45-1.67-3.35-1.27L6.83,16.49a1.58,1.58,0,0,1-1.62-.43C3.68,14.4,1.44,11.87.88,9.6c0,0-1.91-5.81-.1-6.12C11.73,5,66.88,12.55,88,25.92A6.94,6.94,0,0,1,90.09,28.92Z"/><path class="cls-1" d="M83.09,35.55,82,40.8c-.48,1.78.51,3.65,1.88,3.58l56.74-3.19c1.13-.06,2-1.46,1.83-3l-1.71-17.12c-.15-1.5-1.16-2.52-2.24-2.26L86.06,33.86C85.39,34,83.33,34.66,83.09,35.55Z"/><path class="cls-1" d="M76,39l-1.32,2.87a2.07,2.07,0,0,0,.7,2.6l52.56,29.47a1.41,1.41,0,0,0,2-.77l8.41-17.82a2,2,0,0,0-1-2.76L77.61,38.05A1.44,1.44,0,0,0,76,39Z"/><path class="cls-1" d="M73.94,40l43.57,36.25a1.57,1.57,0,0,1-.29,2.5L101.7,87.52a1.18,1.18,0,0,1-1.57-.34L69.62,45.46a1.59,1.59,0,0,1,0-1.87l2.46-3.28A1.25,1.25,0,0,1,73.94,40Z"/><path class="cls-2" d="M70.44,49.64l7.47-6c2.26-3.25,3.78-9.32,5-13.08L73.55,16.44l-60.06-4v3.65l2.12,8.48S44.14,55.66,70.44,49.64Z"/><path class="cls-3" d="M83.58,31.29s7.53-2.36,8.94-8c0,0,8-12.24-30.58-14.12,0,0-47.61-2-48.55,2.21C13.39,11.38,72.76,18.11,83.58,31.29Z"/><path class="cls-3" d="M70.55,49.68c.67.21,3.55,1.6,3.27,7.09,0,.44-1.27,10.88-7.7,11.22C65,67.88,45.68,65.45,15.21,24.44a.51.51,0,0,1,.7-.73C25.53,30.28,59,52.35,70.55,49.68Z"/><path class="cls-4" d="M82.49,31.06v.75c-.42,1.07-.68,2.12-1.16,3.07-.33.73-.75,1.62-1.72,1.39-1.77-.39-5.59-1.37-6.81-2.75a1.35,1.35,0,0,1-.31-.77V31.29s-2.64,1.41-3.26,1.05c0,0-7-1.73-6.79-2.58a3.81,3.81,0,0,1-.87-1,1.21,1.21,0,0,0-1.23-.6,13.91,13.91,0,0,1-7.73-1.36c-.5-.52-1.77-2-1.56-3.15l-.53-.8S48,26,47.17,25.73c-.2.15-3.23,1.79-5.57-1.59l-3-2.58a1.2,1.2,0,0,0-1.58,0L35.42,23a.83.83,0,0,1-.78.2h-5.8a.76.76,0,0,1-.92-.24,24.72,24.72,0,0,0-2-2.16c-.62-.25-1.9-1.28-2.6-1l-5.23,1.65a1.21,1.21,0,0,1-1.25-.33c-1.18-1.29-2.91-3.24-3.35-5,0,0-1.48-4.49-.08-4.73,8.47,1.18,51.14,7,67.46,17.36A5.32,5.32,0,0,1,82.49,31.06Z"/><path class="cls-5" d="M91.16,35.19l-.84,2.87a1.46,1.46,0,0,0,1.43,2l43-1.74a1.47,1.47,0,0,0,1.38-1.66l-1.29-9.37a1.46,1.46,0,0,0-1.7-1.24L93.41,34.26C92.9,34.35,91.34,34.7,91.16,35.19Z"/><path class="cls-5" d="M86.67,45.47l-1,1.74a1.13,1.13,0,0,0,.52,1.58l38.9,17.89a1.13,1.13,0,0,0,1.45-.47l6.23-10.82a1.13,1.13,0,0,0-.76-1.67L87.88,44.91A1.13,1.13,0,0,0,86.67,45.47Z"/><path class="cls-5" d="M81.85,52.14l30,22.61a.89.89,0,0,1-.15,1.5l-10.25,5a.89.89,0,0,1-1.07-.23L79.05,55.33a.89.89,0,0,1,0-1.13l1.59-1.92A.87.87,0,0,1,81.85,52.14Z"/></g></g></svg>